<?xml version="1.0" encoding="UTF-8" standalone="no"?>
<!DOCTYPE svg PUBLIC "-//W3C//DTD SVG 1.1//EN"
 "http://www.w3.org/Graphics/SVG/1.1/DTD/svg11.dtd">
<!-- Generated by graphviz version 12.0.0 (0)
 -->
<!-- Title: dataflow Pages: 1 -->
<svg width="458pt" height="398pt"
 viewBox="0.00 0.00 457.54 397.50" xmlns="http://www.w3.org/2000/svg" xmlns:xlink="http://www.w3.org/1999/xlink">
<g id="graph0" class="graph" transform="scale(1 1) rotate(0) translate(4 393.5)">
<title>dataflow</title>
<polygon fill="white" stroke="none" points="-4,4 -4,-393.5 453.54,-393.5 453.54,4 -4,4"/>
<!-- query -->
<g id="node1" class="node">
<title>query</title>
<ellipse fill="none" stroke="black" cx="118" cy="-371.5" rx="31.9" ry="18"/>
<text text-anchor="middle" x="118" y="-366.45" font-family="Times New Roman,serif" font-size="14.00">query</text>
</g>
<!-- dict -->
<g id="node2" class="node">
<title>dict</title>
<ellipse fill="none" stroke="black" cx="84" cy="-104.25" rx="27" ry="18"/>
<text text-anchor="middle" x="84" y="-99.2" font-family="Times New Roman,serif" font-size="14.00">dict</text>
</g>
<!-- query&#45;&gt;dict -->
<g id="edge1" class="edge">
<title>query&#45;&gt;dict</title>
<path fill="none" stroke="black" d="M106.92,-354.21C93.79,-333.82 72.66,-297.34 64.5,-262.5 54,-217.65 65.58,-164.2 74.84,-132.59"/>
<polygon fill="black" stroke="black" points="78.07,-134.02 77.66,-123.43 71.38,-131.96 78.07,-134.02"/>
<text text-anchor="middle" x="82.25" y="-238.32" font-family="Times New Roman,serif" font-size="14.00">英字</text>
</g>
<!-- roma2hira -->
<g id="node3" class="node">
<title>roma2hira</title>
<ellipse fill="none" stroke="black" cx="169" cy="-298.5" rx="49.3" ry="18"/>
<text text-anchor="middle" x="169" y="-293.45" font-family="Times New Roman,serif" font-size="14.00">roma2hira</text>
</g>
<!-- query&#45;&gt;roma2hira -->
<g id="edge2" class="edge">
<title>query&#45;&gt;roma2hira</title>
<path fill="none" stroke="black" d="M129.57,-354.39C135.74,-345.8 143.49,-335.02 150.47,-325.29"/>
<polygon fill="black" stroke="black" points="153.24,-327.43 156.24,-317.27 147.56,-323.35 153.24,-327.43"/>
</g>
<!-- narrow2wide -->
<g id="node4" class="node">
<title>narrow2wide</title>
<ellipse fill="none" stroke="black" cx="390" cy="-244.5" rx="59.54" ry="18"/>
<text text-anchor="middle" x="390" y="-239.45" font-family="Times New Roman,serif" font-size="14.00">narrow2wide</text>
</g>
<!-- query&#45;&gt;narrow2wide -->
<g id="edge3" class="edge">
<title>query&#45;&gt;narrow2wide</title>
<path fill="none" stroke="black" d="M142.14,-359.41C188.53,-338.09 290.63,-291.17 348.27,-264.68"/>
<polygon fill="black" stroke="black" points="349.49,-267.97 357.11,-260.61 346.57,-261.61 349.49,-267.97"/>
</g>
<!-- compose -->
<g id="node5" class="node">
<title>compose</title>
<ellipse fill="none" stroke="black" cx="169" cy="-18" rx="44.19" ry="18"/>
<text text-anchor="middle" x="169" y="-12.95" font-family="Times New Roman,serif" font-size="14.00">compose</text>
</g>
<!-- query&#45;&gt;compose -->
<g id="edge4" class="edge">
<title>query&#45;&gt;compose</title>
<path fill="none" stroke="black" d="M87.3,-365.67C52.34,-358.22 0,-340.26 0,-299.5 0,-299.5 0,-299.5 0,-103.25 0,-51.24 64.9,-31.34 114.26,-23.72"/>
<polygon fill="black" stroke="black" points="114.56,-27.21 123.98,-22.36 113.59,-20.28 114.56,-27.21"/>
</g>
<!-- dict&#45;&gt;compose -->
<g id="edge13" class="edge">
<title>dict&#45;&gt;compose</title>
<path fill="none" stroke="black" d="M95.45,-87.9C103.29,-77.82 114.18,-64.58 125,-54 129.45,-49.65 134.41,-45.29 139.35,-41.21"/>
<polygon fill="black" stroke="black" points="141.31,-44.13 146.93,-35.15 136.94,-38.66 141.31,-44.13"/>
</g>
<!-- roma2hira&#45;&gt;dict -->
<g id="edge5" class="edge">
<title>roma2hira&#45;&gt;dict</title>
<path fill="none" stroke="black" d="M149.99,-281.66C131.93,-265.38 105.73,-238.25 93.25,-208.5 83.25,-184.67 81.56,-155.08 82,-133.7"/>
<polygon fill="black" stroke="black" points="85.49,-134.1 82.38,-123.97 78.49,-133.82 85.49,-134.1"/>
<text text-anchor="middle" x="119.88" y="-184.32" font-family="Times New Roman,serif" font-size="14.00">平仮名</text>
</g>
<!-- roma2hira&#45;&gt;compose -->
<g id="edge6" class="edge">
<title>roma2hira&#45;&gt;compose</title>
<path fill="none" stroke="black" d="M189.95,-281.89C231.85,-248.6 319.99,-167.07 296,-86.25 291.13,-69.85 288.55,-64.44 275,-54 259.22,-41.85 239.03,-33.81 220.51,-28.55"/>
<polygon fill="black" stroke="black" points="221.58,-25.21 211.02,-26.07 219.81,-31.98 221.58,-25.21"/>
</g>
<!-- hira2kata -->
<g id="node6" class="node">
<title>hira2kata</title>
<ellipse fill="none" stroke="black" cx="199" cy="-190.5" rx="45.21" ry="18"/>
<text text-anchor="middle" x="199" y="-185.45" font-family="Times New Roman,serif" font-size="14.00">hira2kata</text>
</g>
<!-- roma2hira&#45;&gt;hira2kata -->
<g id="edge7" class="edge">
<title>roma2hira&#45;&gt;hira2kata</title>
<path fill="none" stroke="black" d="M173.82,-280.47C178.45,-264.11 185.53,-239.09 191.01,-219.74"/>
<polygon fill="black" stroke="black" points="194.32,-220.87 193.68,-210.3 187.59,-218.97 194.32,-220.87"/>
</g>
<!-- narrow2wide&#45;&gt;compose -->
<g id="edge12" class="edge">
<title>narrow2wide&#45;&gt;compose</title>
<path fill="none" stroke="black" d="M389.84,-226.1C388.49,-188.65 379.78,-100.13 329,-54 313.5,-39.92 262.86,-30.45 222.65,-24.96"/>
<polygon fill="black" stroke="black" points="223.23,-21.5 212.86,-23.67 222.32,-28.44 223.23,-21.5"/>
<text text-anchor="middle" x="414.5" y="-141.2" font-family="Times New Roman,serif" font-size="14.00">全角英字</text>
</g>
<!-- hira2kata&#45;&gt;dict -->
<g id="edge8" class="edge">
<title>hira2kata&#45;&gt;dict</title>
<path fill="none" stroke="black" d="M163.66,-179.03C148.6,-173.4 131.49,-165.34 118.25,-154.5 110.46,-148.12 103.67,-139.53 98.23,-131.32"/>
<polygon fill="black" stroke="black" points="101.3,-129.64 93.09,-122.94 95.34,-133.3 101.3,-129.64"/>
<text text-anchor="middle" x="144.88" y="-141.2" font-family="Times New Roman,serif" font-size="14.00">片仮名</text>
</g>
<!-- hira2kata&#45;&gt;compose -->
<g id="edge9" class="edge">
<title>hira2kata&#45;&gt;compose</title>
<path fill="none" stroke="black" d="M189.3,-172.49C183.77,-162.94 176.64,-150.84 170,-140.25 164.89,-132.1 160.79,-131.45 158,-122.25 150.54,-97.62 154.82,-68.35 160.07,-47.27"/>
<polygon fill="black" stroke="black" points="163.44,-48.23 162.7,-37.66 156.69,-46.38 163.44,-48.23"/>
</g>
<!-- wide2narrow -->
<g id="node7" class="node">
<title>wide2narrow</title>
<ellipse fill="none" stroke="black" cx="227" cy="-104.25" rx="59.54" ry="18"/>
<text text-anchor="middle" x="227" y="-99.2" font-family="Times New Roman,serif" font-size="14.00">wide2narrow</text>
</g>
<!-- hira2kata&#45;&gt;wide2narrow -->
<g id="edge10" class="edge">
<title>hira2kata&#45;&gt;wide2narrow</title>
<path fill="none" stroke="black" d="M204.67,-172.45C208.4,-161.22 213.37,-146.25 217.68,-133.29"/>
<polygon fill="black" stroke="black" points="220.94,-134.59 220.77,-124 214.29,-132.39 220.94,-134.59"/>
</g>
<!-- wide2narrow&#45;&gt;compose -->
<g id="edge11" class="edge">
<title>wide2narrow&#45;&gt;compose</title>
<path fill="none" stroke="black" d="M215.26,-86.2C207.11,-74.36 196.1,-58.37 186.87,-44.95"/>
<polygon fill="black" stroke="black" points="189.93,-43.24 181.38,-36.98 184.17,-47.2 189.93,-43.24"/>
<text text-anchor="middle" x="236.5" y="-54.95" font-family="Times New Roman,serif" font-size="14.00">半角カナ</text>
</g>
</g>
</svg>
