<?xml version="1.0" encoding="UTF-8" standalone="no"?>
<!DOCTYPE svg PUBLIC "-//W3C//DTD SVG 1.1//EN"
 "http://www.w3.org/Graphics/SVG/1.1/DTD/svg11.dtd">
<!-- Generated by graphviz version 12.0.0 (0)
 -->
<!-- Title: dataflow Pages: 1 -->
<svg width="437pt" height="332pt"
 viewBox="0.00 0.00 437.44 332.00" xmlns="http://www.w3.org/2000/svg" xmlns:xlink="http://www.w3.org/1999/xlink">
<g id="graph0" class="graph" transform="scale(1 1) rotate(0) translate(4 328)">
<title>dataflow</title>
<polygon fill="white" stroke="none" points="-4,4 -4,-328 433.44,-328 433.44,4 -4,4"/>
<!-- query -->
<g id="node1" class="node">
<title>query</title>
<ellipse fill="none" stroke="black" cx="237.9" cy="-306" rx="31.9" ry="18"/>
<text text-anchor="middle" x="237.9" y="-300.95" font-family="Times New Roman,serif" font-size="14.00">query</text>
</g>
<!-- lower -->
<g id="node2" class="node">
<title>lower</title>
<ellipse fill="none" stroke="black" cx="31.9" cy="-162" rx="31.9" ry="18"/>
<text text-anchor="middle" x="31.9" y="-156.95" font-family="Times New Roman,serif" font-size="14.00">lower</text>
</g>
<!-- query&#45;&gt;lower -->
<g id="edge1" class="edge">
<title>query&#45;&gt;lower</title>
<path fill="none" stroke="black" d="M211.49,-295.45C187.73,-286.22 152.43,-270.87 124.9,-252 97.57,-233.26 70.7,-206.37 52.92,-187.06"/>
<polygon fill="black" stroke="black" points="55.75,-184.96 46.44,-179.9 50.56,-189.66 55.75,-184.96"/>
</g>
<!-- narrow2wide -->
<g id="node5" class="node">
<title>narrow2wide</title>
<ellipse fill="none" stroke="black" cx="369.9" cy="-234" rx="59.54" ry="18"/>
<text text-anchor="middle" x="369.9" y="-228.95" font-family="Times New Roman,serif" font-size="14.00">narrow2wide</text>
</g>
<!-- query&#45;&gt;narrow2wide -->
<g id="edge4" class="edge">
<title>query&#45;&gt;narrow2wide</title>
<path fill="none" stroke="black" d="M260.59,-292.97C280.03,-282.66 308.43,-267.6 331.41,-255.41"/>
<polygon fill="black" stroke="black" points="333,-258.53 340.2,-250.75 329.72,-252.35 333,-258.53"/>
</g>
<!-- wide2narrow -->
<g id="node6" class="node">
<title>wide2narrow</title>
<ellipse fill="none" stroke="black" cx="288.9" cy="-90" rx="59.54" ry="18"/>
<text text-anchor="middle" x="288.9" y="-84.95" font-family="Times New Roman,serif" font-size="14.00">wide2narrow</text>
</g>
<!-- query&#45;&gt;wide2narrow -->
<g id="edge6" class="edge">
<title>query&#45;&gt;wide2narrow</title>
<path fill="none" stroke="black" d="M241.99,-287.85C250.76,-251.07 271.44,-164.29 282.17,-119.24"/>
<polygon fill="black" stroke="black" points="285.53,-120.24 284.45,-109.7 278.72,-118.62 285.53,-120.24"/>
</g>
<!-- roma2hira -->
<g id="node7" class="node">
<title>roma2hira</title>
<ellipse fill="none" stroke="black" cx="182.9" cy="-234" rx="49.3" ry="18"/>
<text text-anchor="middle" x="182.9" y="-228.95" font-family="Times New Roman,serif" font-size="14.00">roma2hira</text>
</g>
<!-- query&#45;&gt;roma2hira -->
<g id="edge8" class="edge">
<title>query&#45;&gt;roma2hira</title>
<path fill="none" stroke="black" d="M225.42,-289.12C218.86,-280.77 210.66,-270.32 203.21,-260.84"/>
<polygon fill="black" stroke="black" points="205.97,-258.69 197.04,-252.99 200.46,-263.01 205.97,-258.69"/>
</g>
<!-- compose -->
<g id="node3" class="node">
<title>compose</title>
<ellipse fill="none" stroke="black" cx="181.9" cy="-18" rx="44.19" ry="18"/>
<text text-anchor="middle" x="181.9" y="-12.95" font-family="Times New Roman,serif" font-size="14.00">compose</text>
</g>
<!-- lower&#45;&gt;compose -->
<g id="edge2" class="edge">
<title>lower&#45;&gt;compose</title>
<path fill="none" stroke="black" d="M34.68,-143.87C38.66,-124.27 47.75,-92.28 66.9,-72 84.93,-52.91 111.18,-40.09 134.04,-31.86"/>
<polygon fill="black" stroke="black" points="135.16,-35.17 143.51,-28.66 132.92,-28.54 135.16,-35.17"/>
</g>
<!-- dict -->
<g id="node4" class="node">
<title>dict</title>
<ellipse fill="none" stroke="black" cx="102.9" cy="-90" rx="27" ry="18"/>
<text text-anchor="middle" x="102.9" y="-84.95" font-family="Times New Roman,serif" font-size="14.00">dict</text>
</g>
<!-- lower&#45;&gt;dict -->
<g id="edge3" class="edge">
<title>lower&#45;&gt;dict</title>
<path fill="none" stroke="black" d="M47.31,-145.81C56.96,-136.29 69.57,-123.86 80.34,-113.24"/>
<polygon fill="black" stroke="black" points="82.75,-115.78 87.42,-106.27 77.84,-110.8 82.75,-115.78"/>
</g>
<!-- dict&#45;&gt;compose -->
<g id="edge15" class="edge">
<title>dict&#45;&gt;compose</title>
<path fill="none" stroke="black" d="M118.51,-75.17C129.08,-65.81 143.3,-53.21 155.59,-42.32"/>
<polygon fill="black" stroke="black" points="157.83,-45.01 162.99,-35.76 153.18,-39.77 157.83,-45.01"/>
</g>
<!-- narrow2wide&#45;&gt;compose -->
<g id="edge5" class="edge">
<title>narrow2wide&#45;&gt;compose</title>
<path fill="none" stroke="black" d="M374.34,-215.71C381.5,-183.55 391.59,-113.97 357.9,-72 329.36,-36.44 277.85,-24.06 237.9,-20.07"/>
<polygon fill="black" stroke="black" points="238.2,-16.58 227.95,-19.24 237.62,-23.56 238.2,-16.58"/>
</g>
<!-- wide2narrow&#45;&gt;compose -->
<g id="edge7" class="edge">
<title>wide2narrow&#45;&gt;compose</title>
<path fill="none" stroke="black" d="M264.62,-73.12C249.71,-63.36 230.44,-50.75 214.24,-40.16"/>
<polygon fill="black" stroke="black" points="216.17,-37.24 205.89,-34.69 212.34,-43.1 216.17,-37.24"/>
</g>
<!-- roma2hira&#45;&gt;compose -->
<g id="edge10" class="edge">
<title>roma2hira&#45;&gt;compose</title>
<path fill="none" stroke="black" d="M197.76,-216.71C205.72,-206.86 214.72,-193.61 218.9,-180 233.22,-133.45 212.26,-77.82 196.53,-45.63"/>
<polygon fill="black" stroke="black" points="199.8,-44.34 192.14,-37.01 193.56,-47.51 199.8,-44.34"/>
</g>
<!-- roma2hira&#45;&gt;dict -->
<g id="edge9" class="edge">
<title>roma2hira&#45;&gt;dict</title>
<path fill="none" stroke="black" d="M153.85,-219.27C138.37,-210.35 120.58,-197.18 110.9,-180 100.65,-161.79 98.97,-138.1 99.68,-119.74"/>
<polygon fill="black" stroke="black" points="103.17,-120.01 100.35,-109.8 96.19,-119.54 103.17,-120.01"/>
</g>
<!-- hira2kata -->
<g id="node8" class="node">
<title>hira2kata</title>
<ellipse fill="none" stroke="black" cx="164.9" cy="-162" rx="45.21" ry="18"/>
<text text-anchor="middle" x="164.9" y="-156.95" font-family="Times New Roman,serif" font-size="14.00">hira2kata</text>
</g>
<!-- roma2hira&#45;&gt;hira2kata -->
<g id="edge11" class="edge">
<title>roma2hira&#45;&gt;hira2kata</title>
<path fill="none" stroke="black" d="M178.45,-215.7C176.56,-208.32 174.29,-199.52 172.17,-191.25"/>
<polygon fill="black" stroke="black" points="175.56,-190.38 169.68,-181.57 168.78,-192.13 175.56,-190.38"/>
</g>
<!-- hira2kata&#45;&gt;compose -->
<g id="edge12" class="edge">
<title>hira2kata&#45;&gt;compose</title>
<path fill="none" stroke="black" d="M166.99,-143.59C169.86,-119.61 175.06,-76.14 178.5,-47.42"/>
<polygon fill="black" stroke="black" points="181.96,-47.96 179.67,-37.61 175.01,-47.13 181.96,-47.96"/>
</g>
<!-- hira2kata&#45;&gt;dict -->
<g id="edge14" class="edge">
<title>hira2kata&#45;&gt;dict</title>
<path fill="none" stroke="black" d="M150.52,-144.76C142.44,-135.64 132.23,-124.11 123.33,-114.06"/>
<polygon fill="black" stroke="black" points="126.19,-112.02 116.94,-106.85 120.95,-116.66 126.19,-112.02"/>
</g>
<!-- hira2kata&#45;&gt;wide2narrow -->
<g id="edge13" class="edge">
<title>hira2kata&#45;&gt;wide2narrow</title>
<path fill="none" stroke="black" d="M190.3,-146.67C208.03,-136.65 232,-123.12 251.87,-111.91"/>
<polygon fill="black" stroke="black" points="253.52,-114.99 260.51,-107.03 250.08,-108.9 253.52,-114.99"/>
</g>
</g>
</svg>
